<?xml version="1.0" standalone="no"?>
<!DOCTYPE svg PUBLIC "-//W3C//DTD SVG 1.1//EN" 
  "http://www.w3.org/Graphics/SVG/1.1/DTD/svg11.dtd">
<svg viewBox = "0 0 960 880"
     xmlns="http://www.w3.org/2000/svg" version = "1.1">


  <!-- fields -->
  <g transform="translate(720,680)" fill="grey" stroke-width="0">
    <rect x="-560" y="-520" width="80" height="80"/>

    <rect x="-560" y="-440" width="80" height="80"/>
    <rect x="-480" y="-440" width="80" height="80"/>
    <rect x="-400" y="-440" width="80" height="80"/>
    <rect x="-320" y="-440" width="80" height="80"/>
    <rect x="-240" y="-440" width="80" height="80"/>
    <rect x="-160" y="-440" width="80" height="80"/>
    <rect x="-80" y="-440" width="80" height="80"/>
    <rect x="0" y="-440" width="80" height="80"/>
    <rect x="80" y="-440" width="80" height="80"/>
    <rect x="160" y="-440" width="80" height="80"/>

    <rect x="-480" y="-360" width="80" height="80"/>

    <rect x="-400" y="-360" width="80" height="80"/>

    <rect x="-400" y="-280" width="80" height="80"/>

    <rect x="-320" y="-200" width="80" height="80"/>
    <rect x="-320" y="-120" width="80" height="80"/>

    <rect x="-240" y="-40" width="80" height="80"/>

    <rect x="-240" y="40" width="80" height="80"/>
    <rect x="-160" y="40" width="80" height="80"/>
    <rect x="-80" y="40" width="80" height="80"/>
    <rect x="0" y="40" width="80" height="80"/>

    <rect x="0" y="120" width="80" height="80"/>
    <rect x="80" y="120" width="80" height="80"/>
    <rect x="160" y="120" width="80" height="80"/>

  </g>

  <!-- date text -->
  <g transform="translate(480,320)" font-family="Arial" font-size="32" fill="black" stroke-width="1">

    <!-- 1st week -->
    <g transform="translate(-480,-200)">
      <text x="-80" y="-40"
	    transform="rotate(90, 80 40)">
	07.03.
      </text>
    </g>

    <!-- 2nd week -->
    <g transform="translate(-400,-200)">
      <text x="-80" y="-40"
	    transform="rotate(90, 80 40)">
	11.03.
      </text>
    </g>

    <g transform="translate(-320,-200)">
      <text x="-80" y="-40"
	    transform="rotate(90, 80 40)">
	12.03.
      </text>
    </g>

    <g transform="translate(-240,-200)">
      <text x="-80" y="-40"
	    transform="rotate(90, 80 40)">
	13.03.
      </text>
    </g>

    <g transform="translate(-160,-200)">
      <text x="-80" y="-40"
	    transform="rotate(90, 80 40)">
	14.03.
      </text>
    </g>

    <!-- 3rd week -->
    <g transform="translate(-80,-200)">
      <text x="-80" y="-40"
	    transform="rotate(90, 80 40)">
	18.03.
      </text>
    </g>

    <g transform="translate(0,-200)">
      <text x="-80" y="-40"
	    transform="rotate(90, 80 40)">
	19.03.
      </text>
    </g>

    <g transform="translate(80,-200)">
      <text x="-80" y="-40"
	    transform="rotate(90, 80 40)">
	20.03.
      </text>
    </g>

    <g transform="translate(160,-200)">
      <text x="-80" y="-40"
	    transform="rotate(90, 80 40)">
	21.03.
      </text>
    </g>

    <!-- 4th week -->
    <g transform="translate(240,-200)">
      <text x="-80" y="-40"
	    transform="rotate(90, 80 40)">
	25.03.
      </text>
    </g>

  </g>

  <!-- criteria text -->
  <g transform="translate(480,599)" font-family="Arial" font-size="32" fill="black" stroke-width="1">

    <g transform="translate(-400,-320)">
      <text x="-80" y="-40">
	M01
      </text>
    </g>

    <g transform="translate(-400,-240)">
      <text x="-80" y="-40">
	M02
      </text>
    </g>

    <g transform="translate(-400,-160)">
      <text x="-80" y="-40">
	M03
      </text>
    </g>

    <g transform="translate(-400,-80)">
      <text x="-80" y="-40">
	M04
      </text>
    </g>

    <g transform="translate(-400,0)">
      <text x="-80" y="-40">
	M05.01
      </text>
    </g>

    <g transform="translate(-400,80)">
      <text x="-80" y="-40">
	M05.02
      </text>
    </g>

    <g transform="translate(-400,160)">
      <text x="-80" y="-40">
	M06
      </text>
    </g>

    <g transform="translate(-400,240)">
      <text x="-80" y="-40">
	M07
      </text>
    </g>

    <g transform="translate(-400,320)">
      <text x="-80" y="-40">
	M08
      </text>
    </g>

  </g>
  <!-- outline -->
  <rect x="0" y="0" width="960" height="880"
        fill="none" stroke="black" stroke-width="1"/>

  <!-- table -->
  <g transform="translate(560,520)" stroke="black" stroke-width="1">
    <line x1="-400" y1="-360" x2="-400" y2="360"/>
    <line x1="-320" y1="-360" x2="-320" y2="360"/>
    <line x1="-240" y1="-360" x2="-240" y2="360"/>
    <line x1="-160" y1="-360" x2="-160" y2="360"/>
    <line x1="-80" y1="-360" x2="-80" y2="360"/>
    <line x1="0" y1="-360" x2="0" y2="360"/>
    <line x1="80" y1="-360" x2="80" y2="360"/>
    <line x1="160" y1="-360" x2="160" y2="360"/>
    <line x1="240" y1="-360" x2="240" y2="360"/>
    <line x1="320" y1="-360" x2="320" y2="360"/>
    <line x1="400" y1="-360" x2="400" y2="360"/>

    <line x1="-400" y1="-360" x2="400" y2="-360"/>
    <line x1="-400" y1="-280" x2="400" y2="-280"/>
    <line x1="-400" y1="-200" x2="400" y2="-200"/>
    <line x1="-400" y1="-120" x2="400" y2="-120"/>
    <line x1="-400" y1="-40" x2="400" y2="-40"/>
    <line x1="-400" y1="40" x2="400" y2="40"/>
    <line x1="-400" y1="120" x2="400" y2="120"/>
    <line x1="-400" y1="200" x2="400" y2="200"/>
    <line x1="-400" y1="280" x2="400" y2="280"/>
    <line x1="-400" y1="360" x2="400" y2="360"/>
  </g>


</svg>
